<?xml version="1.0" encoding="utf-8"?>
<!-- Generator: Adobe Illustrator 27.7.0, SVG Export Plug-In . SVG Version: 6.00 Build 0)  -->
<svg version="1.1" id="Capa_1" xmlns="http://www.w3.org/2000/svg" xmlns:xlink="http://www.w3.org/1999/xlink" x="0px" y="0px"
	 viewBox="0 0 1024 280" style="enable-background:new 0 0 1024 280;" xml:space="preserve">
<style type="text/css">
	.st0{opacity:0.3;}
	.st1{fill:#650000;}
	.st2{fill:#FFBC00;}
	.st3{opacity:0.55;}
	.st4{fill:#FFFFFF;}
	.st5{fill:#FF8806;}
	.st6{fill:#FBC100;}
	.st7{fill:#FC2F00;}
	.st8{fill:#FFD9AB;}
	.st9{fill:#FEFEFD;}
	.st10{fill:#3FE05D;}
	.st11{opacity:0.2;}
</style>
<g>
	<g class="st0">
		<path class="st1" d="M159.3,132.6c-5.9,10.6-14.9,19.1-27,25.6c-12.2,6.5-27.2,9.7-45.3,9.7H53.7v79.2H0V26.5h87
			c17.6,0,32.5,3,44.6,9.1c12.1,6.1,21.3,14.5,27.3,25.1c6.1,10.7,9.1,22.9,9.1,36.8C168.1,110.3,165.2,122,159.3,132.6z M105.9,118
			c5-4.8,7.5-11.6,7.5-20.4c0-8.8-2.5-15.6-7.5-20.4c-5-4.8-12.7-7.2-22.9-7.2H53.7v55.3H83C93.2,125.2,100.9,122.8,105.9,118z"/>
		<path class="st1" d="M281.2,26.5v220.6h-53.7V26.5H281.2z"/>
		<path class="st1" d="M408.8,203.1h94.9v44H347.9v-40.9l94.3-135.8h-94.3v-44h155.9v40.9L408.8,203.1z"/>
		<path class="st1" d="M627.5,203.1h94.9v44H566.6v-40.9l94.3-135.8h-94.3v-44h155.9v40.9L627.5,203.1z"/>
	</g>
	<g>
		<g class="st0">
			<g>
				<g>
					<path class="st1" d="M786,238.2c33.3,24.6,72.9,37.7,114.7,37.7s81.4-13,114.7-37.7c8-5.9,10.8-16.4,6.9-25.6
						c-2.5-5.8-7.5-10.2-13.6-12c-3-0.9-6.1-1.1-9.1-0.6l-18.6-34.4c0.1-0.5,0.2-1.1,0.2-1.6c0.4-3,0.8-6.1,0.9-9.3
						c0-1.6,0-3.2-0.2-4.8c-0.1-0.8-0.2-1.6-0.4-2.5c-0.2-0.8-0.4-1.7-0.7-2.5c-0.3-0.8-0.7-1.6-1.1-2.4c-0.5-0.8-1-1.5-1.6-2.3
						c-1.3-1.4-3-2.7-5.1-3.1c-1-0.3-2.1-0.3-3-0.2c-1,0.1-1.9,0.3-2.7,0.6c-0.4,0.1-0.8,0.3-1.1,0.4l-14.6-26.9
						c0.1-0.2,0.2-0.4,0.3-0.7c0.2-0.4,0.3-0.8,0.5-1.2c0.2-0.4,0.3-0.8,0.5-1.3c0.5-1.7,0.9-3.5,0.8-5.6c-0.1-1-0.3-2.1-0.7-3.1
						c-0.4-1.1-1.2-2-2.1-2.8c-0.9-0.7-1.7-1.1-2.1-1.5c-0.3-0.2-0.4-0.3-0.5-0.5c-0.2-0.2-0.3-0.3-0.4-0.5
						c-0.5-0.8-0.7-2.1-0.8-3.5c-0.1-1.5,0-3.1-0.1-4.9c-0.1-1.8-0.5-3.6-1.3-5.5c-0.8-1.8-2.1-3.5-4-4.6c-0.9-0.6-2-1-3.1-1.1
						c-1.1-0.2-2.2-0.1-3.1,0.1c-1,0.2-1.9,0.5-2.7,0.8c-0.1,0-0.2,0.1-0.3,0.1l-16.9-31.3c0.2-1.4,0.4-2.9,0.6-4.4
						c0.2-2.2,0.3-4.6,0-6.9c-0.3-2.3-0.8-4.6-1.8-6.9c-0.5-1.1-1.1-2.2-1.9-3.2c-0.7-1-1.6-1.9-2.6-2.7c-1-0.8-2.2-1.5-3.4-1.9
						c-1.3-0.4-2.7-0.7-4.2-0.6c-1.5,0.1-3,0.8-4.1,1.7c-1.2,0.9-2,2.1-2.6,3.3c-1.2,2.3-1.6,4.7-1.9,6.9c-0.2,1.9-0.3,3.8-0.1,5.8
						c-1.9,1.2-3.4,2.9-4.6,5l-14.6,26.9c-0.2-0.3-0.4-0.6-0.6-0.9c-0.7-0.9-1.6-1.8-2.7-2.5c-1.1-0.7-2.4-1.2-3.9-1.3
						c-1.5-0.1-3,0.3-4.2,1.1c-1.2,0.8-2.1,1.8-2.8,2.9c-0.7,1.1-1.1,2.3-1.3,3.5c-0.2,1.2-0.3,2.3-0.3,3.4c0,2.1,0.3,4,0.3,5.7
						c0,1.6-0.4,3.2-1,4.2c-0.4,0.5-0.7,0.8-1.4,1.3l-1.2,0.7c-0.5,0.3-1,0.6-1.4,1c-0.9,0.8-1.7,1.7-2.4,2.7
						c-0.6,1-1.1,2.1-1.5,3.2c-0.7,2.2-0.9,4.4-0.8,6.6c0,0.5,0.1,1.1,0.2,1.6c0.1,0.5,0.2,1,0.3,1.6c0.2,1,0.5,2,0.8,3
						c0.4,1.3,0.9,2.6,1.4,3.8l-15.7,29c-0.5-0.7-1.2-1.2-1.9-1.8c-0.9-0.6-2.1-1.1-3.3-1.2c-1.2-0.1-2.4,0.1-3.5,0.5
						c-1.1,0.4-2,1-2.8,1.7c-0.8,0.7-1.5,1.6-2,2.4c-1,1.8-1.5,3.7-1.8,5.5c-0.5,3.6-0.2,7.1,0.5,10.4c0.5,2.3,1.1,4.5,1.7,6.6
						L807,190.7c-0.9-0.2-1.8-0.3-2.7-0.2c-1.8,0.2-3.5,1-4.8,2.2c-1.3,1.1-2.2,2.5-2.8,3.9c-0.3,0.7-0.6,1.5-0.7,2.2
						c-0.1,0.4-0.2,0.8-0.2,1.2c-1,0.1-2,0.3-3,0.6c-6.1,1.8-11.1,6.1-13.6,12C775.2,221.8,778,232.3,786,238.2z"/>
				</g>
			</g>
			<g>
				<g>
					<path class="st1" d="M919.9,27.4c0.3,0.2,0.6,0.3,1,0.5C920.5,27.7,920.2,27.5,919.9,27.4z"/>
				</g>
			</g>
		</g>
		<g>
			<g>
				<g>
					<path class="st2" d="M804.3,189.7l21-38.7l3.9-7.2l4.6-8.5l1.4-2.6l0.5-0.8l0.3-0.5L854,97.9l17-31.4l2.9-5.4l0.7-1.2L891,29.6
						c1.1-2,2.6-3.5,4.3-4.5c2.1-1.3,4.6-1.8,7.1-1.6c3.7,0.3,7.2,2.4,9.2,6.1l1.3,2.3l85.4,157.7c-17.9,11.8-35.7,20.3-53.6,25.7
						C897.7,229.3,850.9,220.9,804.3,189.7z"/>
				</g>
			</g>
			<g class="st3">
				<g>
					<path class="st4" d="M893.6,26.4c0.5-0.5,1.1-0.9,1.7-1.2c2.1-1.3,4.6-1.8,7.1-1.6c3.7,0.3,7.2,2.4,9.2,6.1l1.3,2.3l85.4,157.7
						c-9.4,6.2-18.8,11.5-28.1,15.9c7.6-3.8,15.2-8.3,22.8-13.3L907.4,34.6l-1.3-2.3c-2-3.7-5.5-5.7-9.2-6.1
						C895.8,26.1,894.7,26.1,893.6,26.4z"/>
				</g>
			</g>
			<g>
				<g>
					<path class="st1" d="M900.7,21.2c5.2,0,9.8,2.7,12.3,7.3l86.7,160c0.6,1.1,0.2,2.5-0.9,3.1c-1.1,0.6-2.5,0.2-3.1-0.9l-86.7-160
						c-1.7-3.1-4.7-4.9-8.2-4.9s-6.6,1.8-8.2,4.9l-86.7,160c-0.6,1.1-2,1.5-3.1,0.9c-1.1-0.6-1.5-2-0.9-3.1l86.7-160
						C890.9,23.9,895.5,21.2,900.7,21.2z"/>
				</g>
			</g>
			<g>
				<g>
					<path class="st5" d="M781.2,201.7c3-6.9,9.5-11,16.4-11.4c2.3-0.1,4.7,0.2,7,0.9c1.6,0.5,3.2,1.3,4.8,2.4c1.5,1,2.9,2,4.4,2.9
						c0.4,0.2,0.8,0.5,1.2,0.7c13.6,8.5,28.5,15,44.3,19.2c4.3,1.1,8.7,2.1,13.1,2.9c3.1,0.5,6.3,1,9.5,1.4c0.6,0.1,1.1,0.1,1.7,0.2
						c0.2,0,0.3,0,0.5,0.1c0.6,0.1,1.2,0.1,1.8,0.2c4.9,0.4,9.9,0.7,14.9,0.7c13.9,0,27.4-1.8,40.3-5.1c2.5-0.6,4.9-1.3,7.3-2.1
						c7.9-2.4,15.6-5.5,23-9c7.2-3.5,14.2-7.5,20.7-12c9.8-6.7,23.3-2.8,28.1,8.1c1.1,2.4,1.6,5,1.6,7.5c0,5.9-2.7,11.6-7.7,15.3
						c-32.6,24.2-72,37.2-113.3,37.2c-25.1,0-49.5-4.8-72-14c-14.6-5.9-28.5-13.7-41.3-23.2C780.3,219.3,777.7,209.8,781.2,201.7z"
						/>
				</g>
			</g>
			<g class="st3">
				<g>
					<path class="st4" d="M786.2,223.6C818.1,246,855.9,258,895.7,258c41.3,0,80.7-13.1,113.3-37.2c5-3.7,7.7-9.4,7.7-15.3
						c0-2.5-0.5-5.1-1.6-7.5c-0.9-2.1-2.2-4-3.7-5.6c3.7,1.9,6.9,5.1,8.7,9.3c1.1,2.4,1.6,5,1.6,7.5c0,5.9-2.7,11.6-7.7,15.3
						c-32.6,24.2-72,37.2-113.3,37.2c-41.3,0-80.7-13-113.3-37.2C787,224.2,786.6,223.9,786.2,223.6z"/>
				</g>
			</g>
			<g>
				<g>
					<path class="st1" d="M798.6,188c4.2,0,8.4,1.3,12,3.7c26.6,18.2,57.7,27.8,90.1,27.8s63.5-9.6,90.1-27.8
						c5.3-3.6,11.8-4.6,17.9-2.9c6.1,1.8,11.1,6.1,13.6,12c4,9.1,1.1,19.6-6.9,25.6C982.1,251,942.4,264,900.7,264
						s-81.4-13-114.7-37.7c-8-5.9-10.8-16.5-6.9-25.6c2.5-5.8,7.5-10.2,13.6-12C794.7,188.3,796.7,188,798.6,188z M900.7,224.2
						c-33.3,0-65.3-9.9-92.7-28.6c-4.1-2.8-9.2-3.6-14-2.3c-4.8,1.4-8.7,4.8-10.7,9.4l0,0c-3.1,7.1-0.9,15.4,5.4,20
						c32.5,24,71.2,36.7,111.9,36.7c40.7,0,79.4-12.7,111.9-36.7c6.3-4.7,8.5-12.9,5.4-20c-2-4.6-5.9-8-10.7-9.4
						c-4.8-1.4-9.9-0.6-14,2.3C966,214.3,933.9,224.2,900.7,224.2z"/>
				</g>
			</g>
			<g>
				<g>
					<path class="st5" d="M839.3,222.9c6.2,1.9,12.6-1.8,18.1-5.2c0.6-0.4,1.2-0.8,1.9-1.2c5.1-3,10.9-5.6,16.2-3.5
						c3.3,1.3,5.8,4.1,7.8,7c0.1,0.1,0.1,0.2,0.2,0.2c0.2,0.3,0.4,0.5,0.6,0.8c1.9,2.7,3.6,5.6,6.2,7.7c2.8,2.3,5,4,11.2,3.6
						c-18.4,6.7-35.7,6.2-51.6-2.5C846.1,228,842.6,225.6,839.3,222.9z"/>
				</g>
			</g>
			<g class="st3">
				<g>
					<path class="st4" d="M881,218.5c-1.2,3.2-0.4,7.1,1.9,9.6c2.3,2.5,6.1,3.7,9.4,2.8C888.8,226.4,884.8,222.6,881,218.5z"/>
				</g>
			</g>
			<g>
				<g>
					<path class="st1" d="M901.3,232.9c-1.5,0.3-3.1,0.5-4.8,0.3c-1.6-0.1-3.4-0.6-4.8-1.4c-0.7-0.4-1.4-0.9-2.1-1.3
						c-0.6-0.4-1.3-1-1.9-1.5c-1.2-1.1-2.3-2.3-3.3-3.6c-1-1.2-1.9-2.5-2.8-3.7c-0.9-1.2-1.7-2.3-2.6-3.3c-0.9-1-1.9-1.9-2.9-2.6
						c-1-0.7-2.2-1.1-3.4-1.3c-2.4-0.4-5,0.4-7.6,1.5c-1.3,0.6-2.5,1.2-3.8,1.9l-1.9,1.1l-2,1.1c-1.4,0.8-2.7,1.5-4.2,2.1
						c-1.5,0.6-3,1.2-4.5,1.6c-1.6,0.4-3.2,0.6-4.9,0.6c-1.7-0.1-3.3-0.4-4.8-1.1c-0.3-0.1-0.4-0.5-0.3-0.8c0.1-0.2,0.4-0.4,0.6-0.3
						l0,0c2.9,0.4,5.7-0.3,8.2-1.5c2.6-1.2,5-2.8,7.4-4.5l0.9-0.6l1-0.7c0.6-0.4,1.3-0.9,2-1.3c1.4-0.8,2.8-1.6,4.3-2.2
						c1.5-0.6,3.1-1.1,4.8-1.4c1.7-0.3,3.5-0.4,5.3-0.1c1.8,0.3,3.6,0.9,5.1,1.8c1.5,0.9,2.9,2.1,4,3.3c1.1,1.2,2.1,2.6,2.9,3.9
						c0.8,1.3,1.6,2.6,2.4,3.9c0.8,1.2,1.6,2.4,2.5,3.4c0.5,0.5,0.9,1,1.5,1.5c0.5,0.5,1,1,1.6,1.4c0.5,0.4,1.1,0.8,1.7,1.1
						c0.6,0.3,1.2,0.5,1.9,0.7c1.4,0.4,2.8,0.6,4.3,0.6l0,0c0.3,0,0.6,0.3,0.5,0.6C901.7,232.7,901.5,232.9,901.3,232.9z"/>
				</g>
			</g>
			<g>
				<g>
					<path class="st5" d="M941,216.8c0-0.2,0-0.4-0.1-0.6c-0.4-3.6-1.5-7.3-0.8-10.9c0.7-3.6,4-7.1,7.6-6.2c1.6,0.4,2.9,1.6,4.2,2.7
						c1.4,1.2,2.7,2.3,4.5,2.4c2,0,3.7-1.4,5.6-1.9c3.4-0.9,6.6,1.1,9.4,3.3c0.6,0.4,1.1,0.9,1.6,1.4c3.1,2.8,7.1,5.7,11.1,4.5
						l-34.3,10.9l-11.9,3.8C940.6,224.2,941.3,220.3,941,216.8z"/>
				</g>
			</g>
			<g class="st3">
				<g>
					<path class="st4" d="M950.4,201.9c0.2,3.4,3,6.5,6.3,7c3.1,0.5,6.5-0.9,9.5,0c3.1,1,5.1,4.1,8.1,5.4c2.7,1.1,6,0.3,7.9-1.9
						c-3.8-1.4-7.1-3.3-10.3-5.9c-1.1-0.9-2.2-1.9-3.5-2.5c-2.8-1.4-6-1-9.1-0.8C956.3,203.6,952.9,203.7,950.4,201.9z"/>
				</g>
			</g>
			<g>
				<g>
					<path class="st1" d="M937.4,225.7c0.9-1.2,1.2-2.5,1.4-3.8c0.2-1.3,0.2-2.6,0-4c-0.1-0.7-0.2-1.3-0.3-2l-0.4-2.2
						c-0.3-1.5-0.6-3.1-0.7-4.8c-0.1-0.9,0-1.8,0-2.7c0-0.5,0.1-0.9,0.2-1.4c0.1-0.5,0.2-1,0.4-1.5c0.7-1.9,1.8-3.5,3.3-4.8
						c0.8-0.7,1.7-1.2,2.7-1.6c1-0.4,2.2-0.5,3.4-0.3c1.2,0.2,2.2,0.6,3,1.1c0.8,0.5,1.5,1.1,2.1,1.6c0.6,0.5,1.2,1,1.7,1.4
						c0.5,0.4,1,0.7,1.4,0.8c0.1,0,0.2,0.1,0.3,0.1c0,0,0.1,0,0.1,0c0,0,0.1,0,0.1,0c0.2,0,0.3,0,0.5,0c0.4-0.1,0.9-0.3,1.6-0.6
						c0.6-0.3,1.4-0.7,2.4-1c0.5-0.2,1-0.3,1.5-0.4c0.5-0.1,1.1-0.1,1.6-0.1c0.5,0,1,0.1,1.5,0.2c0.5,0.1,1,0.2,1.4,0.4
						c0.9,0.3,1.8,0.7,2.5,1.2c1.6,0.9,2.9,2,4.1,3.1c0.6,0.5,1.2,1.1,1.7,1.6c0.5,0.5,1.1,1,1.6,1.5c1.1,0.9,2.1,1.8,3.3,2.5
						c0.6,0.3,1.2,0.6,1.8,0.8c0.6,0.2,1.3,0.3,2.1,0.3l0.1,0c0.3,0,0.6,0.3,0.6,0.6c0,0.2-0.1,0.4-0.3,0.5
						c-0.7,0.4-1.6,0.7-2.5,0.9c-0.9,0.1-1.8,0-2.7-0.1c-1.8-0.4-3.3-1.1-4.8-2c-0.7-0.4-1.4-0.9-2-1.4l-1.8-1.4
						c-0.6-0.4-1.1-0.9-1.7-1.3c-0.6-0.4-1.1-0.8-1.7-1.1c-0.6-0.3-1.1-0.5-1.7-0.7c-0.3-0.1-0.5-0.1-0.8-0.2
						c-0.3,0-0.5-0.1-0.8-0.1c-0.2,0-0.5,0-0.7,0c-0.2,0.1-0.5,0.1-0.7,0.2c-0.5,0.2-1.1,0.5-1.9,0.8c-0.8,0.3-1.7,0.7-2.8,0.9
						c-1.1,0.2-2.5,0-3.5-0.4c-1.1-0.4-1.9-1-2.6-1.6c-0.7-0.6-1.3-1.1-1.8-1.6c-1.1-1-2-1.6-2.8-1.7c-0.4,0-0.8,0-1.2,0.1
						c-0.4,0.1-0.8,0.4-1.2,0.8c-0.8,0.7-1.4,1.7-1.7,2.8c-0.1,0.3-0.1,0.5-0.2,0.8c0,0.3-0.1,0.6-0.1,0.9c0,0.6,0,1.3,0,1.9
						c0.1,1.4,0.3,2.8,0.5,4.3c0.1,0.8,0.2,1.6,0.3,2.4c0.1,0.8,0.1,1.7,0,2.6c-0.1,1.7-0.5,3.5-1.3,5.1c-0.8,1.6-2.2,3.1-3.9,3.6
						c-0.3,0.1-0.7-0.1-0.8-0.4C937.2,226.1,937.3,225.9,937.4,225.7L937.4,225.7z"/>
				</g>
			</g>
			<g>
				<g>
					<path class="st5" d="M792.2,203.4c2.6-1.4,4-4.5,4.6-7.4c0.4-1.9,0.5-3.8,0.8-5.7c0.2-1.1,0.4-2.1,0.7-3.2
						c0.9-2.9,3-5.6,5.9-6.1c1-0.2,1.9-0.1,2.8,0.2c2.7,0.9,4.9,3.5,5.7,6.4c0.9,2.9,0.8,5.9,0.9,8.9c0,0.9,0.1,1.9,0.1,2.8
						c0.3,3.9,1.8,8.2,5.4,9.9l-13.5-2.9L792.2,203.4z"/>
				</g>
			</g>
			<g class="st3">
				<g>
					<path class="st4" d="M807.3,182.5c1.7,4.8,2.5,9.8,2.3,14.9c-0.1,2.6-0.4,5.2,0.7,7.6c1.3,2.8,4.7,4.5,7.7,3.9
						c-2.5-2.2-3.7-5.4-4.2-8.7s-0.2-6.6-0.1-9.9c0-1.9-0.1-4-1.4-5.5C811.1,183.5,809,182.8,807.3,182.5z"/>
				</g>
			</g>
			<g>
				<g>
					<path class="st1" d="M819,209.8c-1.4-0.4-2.7-1.2-3.7-2.3c-0.5-0.5-0.9-1.1-1.3-1.8c-0.4-0.6-0.7-1.3-1-1.9
						c-0.6-1.3-0.9-2.7-1.2-4.1c-0.2-1.4-0.3-2.7-0.4-4c-0.2-2.6-0.3-5-0.8-7.1c-0.2-1-0.7-1.9-1.3-2.7c-0.6-0.8-1.3-1.5-2.1-2
						c-0.8-0.4-1.6-0.6-2.3-0.5c-0.8,0.1-1.5,0.5-2.1,1.1c-0.7,0.6-1.2,1.4-1.7,2.4c-0.3,0.5-0.4,0.9-0.6,1.4
						c-0.2,0.5-0.4,1.1-0.5,1.7c-0.3,1.2-0.5,2.4-0.8,3.7c-0.3,1.3-0.6,2.6-1.1,4c-0.5,1.3-1.2,2.6-2.1,3.8
						c-0.9,1.1-2.1,2.1-3.4,2.6c-0.3,0.1-0.6,0-0.7-0.3c-0.1-0.2,0-0.5,0.2-0.7l0,0c1.9-1.5,2.7-3.8,3.1-6.1
						c0.2-1.2,0.3-2.4,0.3-3.7c0.1-1.3,0.1-2.6,0.3-4c0.1-0.7,0.2-1.4,0.4-2.1c0.2-0.7,0.4-1.5,0.7-2.2c0.6-1.4,1.5-2.8,2.8-3.9
						c0.6-0.6,1.4-1.1,2.2-1.4c0.8-0.4,1.7-0.6,2.6-0.7c0.9-0.1,1.8,0,2.7,0.2c0.9,0.2,1.7,0.5,2.4,0.9c1.5,0.8,2.7,1.9,3.6,3.2
						c0.9,1.3,1.7,2.7,2.2,4.2c0.9,2.9,0.9,5.8,0.8,8.3c0,1.3-0.1,2.5-0.1,3.7c0,1.2,0.1,2.3,0.3,3.5c0.4,2.3,1.3,4.4,3.2,6l0,0
						c0.2,0.2,0.3,0.6,0.1,0.8C819.4,209.8,819.2,209.9,819,209.8z"/>
				</g>
			</g>
			<g>
				<g>
					<path class="st2" d="M822.6,133.8c0.2-2.1,0.8-4.2,2-5.9c1.3-1.7,3.4-2.8,5.4-2.6c1.4,0.2,2.5,0.9,3.5,1.9
						c1.1,1.2,1.8,2.8,2.1,4.3c0,0.1,0,0.2,0,0.2c0.5,2.8,0.1,5.8,0.4,8.7c0.2,3,1.4,6.2,4.1,7.5l-6.2,9.8l-8.6,13.5
						c3-5.6,2-12.5,0.4-18.7c-0.1-0.6-0.3-1.1-0.4-1.7C823.8,145.3,822,139.6,822.6,133.8z"/>
				</g>
			</g>
			<g>
				<g>
					<path class="st1" d="M824.8,171c1-3,1-6.1,0.7-9.1c-0.2-1.5-0.4-3-0.8-4.5c-0.3-1.5-0.8-3-1.2-4.5c-0.9-3-1.9-6.1-2.6-9.5
						c-0.7-3.3-1-6.9-0.5-10.4c0.3-1.8,0.7-3.7,1.8-5.5c0.5-0.9,1.2-1.7,2-2.4c0.8-0.7,1.7-1.3,2.8-1.7c0.5-0.2,1.1-0.3,1.7-0.4
						c0.6-0.1,1.2-0.1,1.8,0c1.2,0.1,2.4,0.6,3.3,1.2c1.9,1.3,3,3.1,3.7,5c0.3,0.9,0.5,2,0.6,2.9c0.1,0.9,0.1,1.8,0.1,2.7
						c-0.1,1.7-0.3,3.3-0.3,4.8c0,0.8,0,1.5,0,2.2c0.1,0.7,0.2,1.4,0.4,2.1c0.4,1.4,1.1,2.6,2.3,3.5l0,0c0.3,0.2,0.3,0.6,0.1,0.8
						c-0.2,0.2-0.4,0.3-0.6,0.2c-0.9-0.3-1.7-0.8-2.3-1.4c-0.7-0.6-1.2-1.4-1.7-2.2c-0.4-0.8-0.8-1.6-1-2.5
						c-0.3-0.9-0.4-1.8-0.5-2.6c-0.2-1.7-0.3-3.4-0.4-4.9c-0.1-1.5-0.4-2.9-0.9-4c-0.5-1.1-1.2-2.1-2-2.6c-0.8-0.5-1.5-0.7-2.5-0.4
						c-0.5,0.2-0.9,0.4-1.3,0.8c-0.4,0.4-0.8,0.8-1.1,1.3c-0.6,1-0.9,2.3-1.1,3.7c-0.3,2.8,0.1,5.8,0.7,8.8c0.6,3,1.5,6.1,2.2,9.3
						c0.3,1.6,0.6,3.3,0.9,5c0.2,1.7,0.3,3.4,0.2,5.1c-0.1,1.7-0.4,3.4-0.8,5.1c-0.5,1.7-1.3,3.2-2.3,4.6c-0.2,0.3-0.6,0.3-0.8,0.1
						C824.8,171.5,824.7,171.2,824.8,171z"/>
				</g>
			</g>
			<g>
				<g>
					<path class="st6" d="M853.5,114.5l1.3-2.1C854.4,113.2,854,113.8,853.5,114.5z"/>
				</g>
			</g>
			<g>
				<g>
					<path class="st2" d="M855.1,75.9c1-0.7,2.1-1.2,3.1-2c2-1.7,2.5-4.6,2.5-7.2c0-2.6-0.5-5.2,0-7.8c0.4-2.6,2.1-5.2,4.7-5.7
						c0.1,0,0.1,0,0.2,0c2.6-0.4,5,1.5,6.4,3.7c0.8,1.3,1.4,2.7,2,4.1c0.5,1.1,0.9,2.2,1.5,3.2c1.4,2.3,3.8,4.4,6.4,4.1L864.3,97
						l-9.5,15.4c1.5-3.3,1.3-7.4,0.4-11c-0.3-1.2-0.7-2.4-1.1-3.5c-1.1-3.2-2.4-6.3-2.9-9.5C850.4,83.8,851.4,78.6,855.1,75.9z"/>
				</g>
			</g>
			<g>
				<g>
					<path class="st1" d="M853.1,114.1c1.8-3.2,1.6-6.9,0.7-10.3c-0.2-0.9-0.5-1.7-0.8-2.6c-0.3-0.9-0.6-1.7-1-2.6
						c-0.7-1.7-1.5-3.5-2.1-5.5c-0.3-1-0.6-2-0.8-3c-0.1-0.5-0.2-1-0.3-1.6c-0.1-0.5-0.1-1.1-0.2-1.6c-0.1-2.2,0.1-4.4,0.8-6.6
						c0.4-1.1,0.8-2.2,1.5-3.2c0.6-1,1.4-1.9,2.4-2.7c0.5-0.4,1-0.8,1.4-1l1.2-0.7c0.7-0.4,1-0.8,1.4-1.3c0.7-1,1-2.6,1-4.2
						c0-1.7-0.2-3.6-0.3-5.7c0-1.1,0-2.2,0.3-3.4c0.2-1.2,0.7-2.4,1.3-3.5c0.7-1.1,1.6-2.1,2.8-2.9c1.2-0.8,2.8-1.2,4.2-1.1
						c1.5,0.1,2.8,0.6,3.9,1.3c1.1,0.7,2,1.5,2.7,2.5c0.4,0.5,0.7,1,1,1.5c0.3,0.5,0.5,1,0.8,1.5c0.5,1,0.8,1.9,1.1,2.8
						c0.3,0.9,0.6,1.7,1,2.5c0.2,0.4,0.3,0.8,0.5,1.1c0.2,0.4,0.4,0.7,0.6,1c0.9,1.3,2,2.5,3.7,2.9l0,0c0.3,0.1,0.5,0.4,0.4,0.7
						c0,0.2-0.2,0.4-0.4,0.4c-0.5,0.2-1.1,0.3-1.7,0.3c-0.6,0-1.2-0.1-1.7-0.3c-1.1-0.3-2.1-1-3-1.7c-0.4-0.4-0.8-0.8-1.2-1.2
						c-0.4-0.4-0.7-0.9-1-1.4c-0.6-0.9-1.1-1.8-1.5-2.7c-0.4-0.9-0.8-1.7-1.2-2.5c-0.2-0.4-0.4-0.7-0.6-1.1
						c-0.2-0.3-0.4-0.6-0.7-0.9c-0.5-0.5-1-1-1.6-1.3c-0.5-0.3-1.1-0.5-1.5-0.5c-0.4,0-0.8,0.1-1.2,0.3c-0.4,0.3-0.8,0.7-1.2,1.3
						c-0.3,0.5-0.6,1.2-0.7,1.9c-0.2,0.7-0.2,1.5-0.2,2.4c0,1.7,0.2,3.6,0.1,5.8c0,1.1-0.2,2.2-0.5,3.4c-0.3,1.1-0.8,2.3-1.5,3.4
						c-0.4,0.5-0.8,1-1.3,1.5c-0.5,0.5-1,0.8-1.5,1.1l-1.3,0.7c-0.4,0.2-0.6,0.4-0.9,0.6c-1.1,0.9-1.9,2.2-2.3,3.7
						c-0.4,1.5-0.5,3.2-0.4,4.8c0,0.4,0.1,0.8,0.2,1.2c0.1,0.4,0.2,0.8,0.3,1.3c0.2,0.9,0.4,1.7,0.7,2.6c0.5,1.8,1.1,3.6,1.7,5.5
						c0.3,0.9,0.5,1.9,0.8,2.9c0.2,1,0.4,2,0.5,3.1c0.2,2.1,0.1,4.2-0.4,6.3c-0.5,2-1.5,4-3.1,5.4c-0.2,0.2-0.6,0.2-0.8,0
						C853,114.6,852.9,114.4,853.1,114.1L853.1,114.1z"/>
				</g>
			</g>
			<g>
				<g>
					<path class="st2" d="M982.2,178.5c-4-5.7-4.3-13.1-3.7-20.1c0.6-6.9,2-13.9,0.8-20.7c-0.8-4.3-3.2-9-7.5-9.7
						c-2.9-0.5-5.8,1-8.6,1.9c-2.8,0.9-6.4,1.1-8.2-1.2"/>
				</g>
			</g>
			<g class="st3">
				<g>
					<path class="st4" d="M982.2,178.5c-0.8-1.1-1.4-2.3-2-3.6L982.2,178.5z"/>
				</g>
			</g>
			<g class="st3">
				<g>
					<path class="st4" d="M964.6,129.1c2.1-0.8,4.2-1.5,6.4-1.1c4.3,0.7,6.8,5.4,7.5,9.7c1.2,6.8-0.1,13.8-0.8,20.7
						c-0.5,5.5-0.4,11.4,1.7,16.5l-4.8-8.7c-0.8-1.4-1.1-3.1-1-4.7c0,0,0,0,0,0c0.6-6.9,2-13.9,0.8-20.7c-0.8-4.3-3.2-9-7.5-9.7
						c-0.6-0.1-1.1-0.1-1.7-0.1C965.1,130.4,964.9,129.7,964.6,129.1z"/>
				</g>
			</g>
			<g>
				<g>
					<path class="st1" d="M981.8,178.8c-2-2.4-3.2-5.4-3.9-8.5c-0.7-3.1-0.9-6.2-0.9-9.3c0-3.1,0.3-6.2,0.5-9.1
						c0.2-3,0.4-5.9,0.3-8.8c-0.1-1.4-0.2-2.8-0.5-4.2c-0.1-0.7-0.3-1.3-0.4-2c-0.2-0.6-0.4-1.2-0.7-1.8c-0.3-0.6-0.6-1.1-0.9-1.7
						c-0.3-0.5-0.7-1-1.1-1.4c-0.4-0.4-0.8-0.7-1.2-1c-0.1-0.1-0.2-0.1-0.3-0.2c-0.1,0-0.2-0.1-0.3-0.2c-0.2-0.1-0.4-0.2-0.7-0.2
						c-0.5-0.1-0.9-0.1-1.5-0.1c-0.5,0-1.1,0.1-1.7,0.3c-1.3,0.3-2.7,0.8-4.2,1.3c-1.6,0.5-3.5,0.7-5.3,0.3
						c-0.9-0.2-1.8-0.5-2.6-1.1c-0.8-0.6-1.4-1.3-1.7-2.2c-0.1-0.3,0.1-0.7,0.4-0.8c0.2-0.1,0.3,0,0.5,0l0.1,0
						c0.7,0.3,1.3,0.5,1.9,0.5c0.6,0,1.2,0,1.8-0.1c1.2-0.2,2.4-0.6,3.6-1.1c1.3-0.5,2.7-1.2,4.3-1.7c0.8-0.3,1.7-0.5,2.7-0.6
						c1-0.1,2-0.1,3,0.2c2.1,0.4,3.8,1.7,5.1,3.1c0.6,0.7,1.1,1.5,1.6,2.3c0.4,0.8,0.8,1.6,1.1,2.4c0.3,0.8,0.6,1.6,0.7,2.5
						c0.2,0.8,0.3,1.7,0.4,2.5c0.2,1.6,0.3,3.2,0.2,4.8c0,3.2-0.4,6.3-0.9,9.3c-0.4,3-0.9,6-1.2,8.9c-0.3,2.9-0.3,5.9,0.1,8.8
						c0.4,2.9,1.3,5.7,2.8,8.2l0,0c0.2,0.3,0.1,0.6-0.2,0.8C982.3,179.1,981.9,179,981.8,178.8z"/>
				</g>
			</g>
			<g>
				<g>
					<path class="st2" d="M946.5,118.3c-2-3.3-1.8-7.4-0.8-11.1c1-3.7,2.8-7.1,4.2-10.6c1.2-3.3,1.9-7.5-0.7-9.9
						c-0.8-0.7-1.8-1.2-2.6-1.9c-2.5-2.2-2.1-6.1-2.2-9.4c0-2.1-0.4-4.3-1.3-6.1c-0.9-1.9-2.6-3.5-4.6-4c-2.8-0.7-5.7,0.7-8.4,1.7
						c-2.7,1.1-6,1.8-8.3,0.1"/>
				</g>
			</g>
			<g class="st3">
				<g>
					<path class="st4" d="M946.5,118.3c-0.3-0.5-0.5-1-0.7-1.5L946.5,118.3z"/>
				</g>
			</g>
			<g class="st3">
				<g>
					<path class="st4" d="M933.3,65.9c-0.1,0-0.3-0.1-0.4-0.1c1.8-0.6,3.6-1,5.4-0.6c2,0.5,3.7,2.1,4.6,4c0.9,1.9,1.3,4,1.3,6.1
						c0.1,3.3-0.3,7.2,2.2,9.4c0.8,0.7,1.8,1.2,2.6,1.9c2.6,2.4,2,6.6,0.7,9.9c-1.3,3.6-3.2,7-4.2,10.6c-0.9,3.1-1.1,6.6,0.1,9.5
						l-0.2-0.5c-2.9-5.9-3.1-12.8-0.7-18.9c0,0,0-0.1,0-0.1c1.2-3.3,1.9-7.5-0.7-9.9c-0.8-0.7-1.8-1.2-2.6-1.9
						c-2.5-2.2-2.1-6.1-2.2-9.4c-0.1-2.1-0.4-4.3-1.3-6.1C937,68,935.4,66.4,933.3,65.9z"/>
				</g>
			</g>
			<g>
				<g>
					<path class="st1" d="M946,118.6c-1.2-1.3-2-2.9-2.4-4.7c-0.4-1.7-0.5-3.5-0.3-5.3c0.4-3.5,1.7-6.7,2.9-9.6l0.9-2.2
						c0.1-0.4,0.3-0.7,0.4-1.1c0.1-0.3,0.2-0.7,0.3-1c0.4-1.3,0.6-2.7,0.6-3.8c0-0.6-0.1-1.1-0.3-1.5c-0.2-0.4-0.4-0.7-0.7-1
						c-0.3-0.3-1-0.7-1.8-1.3c-0.4-0.3-0.9-0.7-1.2-1.1c-0.4-0.4-0.7-0.9-1-1.4c-0.6-1-0.9-2-1.1-2.9c-0.2-1-0.3-1.9-0.3-2.7
						c-0.1-1.7,0-3.3-0.1-4.7c-0.1-1.4-0.4-2.7-1-3.8c-0.5-1.1-1.4-1.9-2.2-2.4c-0.4-0.2-0.9-0.4-1.3-0.5c-0.5-0.1-1-0.1-1.6,0
						c-1.2,0.1-2.6,0.6-4.1,1.1c-0.7,0.2-1.6,0.5-2.5,0.7c-0.9,0.2-1.8,0.3-2.7,0.3c-0.9,0-1.9-0.2-2.8-0.5
						c-0.9-0.3-1.7-0.9-2.3-1.6c-0.2-0.3-0.1-0.6,0.1-0.8c0.2-0.1,0.4-0.1,0.5-0.1l0,0c1.4,0.4,2.7,0.2,4-0.2
						c0.6-0.2,1.3-0.5,1.9-0.8c0.7-0.3,1.3-0.6,2-1c0.7-0.4,1.5-0.7,2.3-1c0.8-0.3,1.7-0.6,2.7-0.8c1-0.2,2.1-0.3,3.1-0.1
						c1.1,0.2,2.2,0.5,3.1,1.1c1.9,1.1,3.2,2.8,4,4.6c0.8,1.8,1.1,3.7,1.3,5.5c0.1,1.8,0.1,3.4,0.2,4.9c0.1,1.4,0.3,2.7,0.8,3.5
						c0.1,0.2,0.3,0.4,0.4,0.5c0.2,0.2,0.3,0.3,0.5,0.5c0.5,0.3,1.2,0.7,2.1,1.5c0.9,0.8,1.6,1.8,2.1,2.8c0.5,1.1,0.7,2.1,0.7,3.2
						c0.1,2-0.3,3.9-0.8,5.6c-0.1,0.4-0.3,0.9-0.5,1.3c-0.2,0.4-0.3,0.8-0.5,1.2c-0.3,0.8-0.7,1.5-1,2.2c-1.4,2.9-2.7,5.6-3.5,8.4
						c-0.4,1.4-0.6,2.8-0.7,4.3c-0.1,1.4,0.1,2.9,0.5,4.4l0,0c0.1,0.3-0.1,0.6-0.4,0.7C946.4,118.8,946.1,118.7,946,118.6z"/>
				</g>
			</g>
			<g>
				<g>
					<path class="st2" d="M895.8,16c0.5-2.9,1.7-6.1,4.4-7.3c2.6-1.2,5.9-0.1,8.1,1.8c0.9,0.8,1.7,1.7,2.4,2.7
						c2.4,3.6,3.1,8.4,2.9,12.8c-0.1,2-0.4,4-0.7,6c-0.6,3.6-1.3,7.1-1.6,10.7c-0.4,5.6,0.5,11.8,4.4,15.8l-13.7-6.7l-6.3-3.1
						c2.4-1.8,3.2-5,3-8c-0.2-3-1.4-5.8-2.1-8.6c-0.6-2.3-1-4.6-1.2-7C895,22.1,895.2,19,895.8,16z"/>
				</g>
			</g>
			<g>
				<g>
					<path class="st1" d="M915.2,58.9c-0.9-0.7-1.6-1.6-2.3-2.5c-0.7-0.9-1.2-1.9-1.7-3c-0.9-2.1-1.5-4.3-1.8-6.6
						c-0.1-1.1-0.2-2.3-0.2-3.4c0-1.1,0-2.2,0.1-3.4c0.1-2.2,0.4-4.4,0.9-6.5c0.4-2.1,0.8-4.1,1-6.1c0.2-2,0.2-4,0-5.9
						c-0.2-1.9-0.7-3.8-1.4-5.5c-0.4-0.8-0.8-1.6-1.4-2.3c-0.3-0.4-0.6-0.7-0.9-1c-0.3-0.3-0.6-0.6-0.9-0.9c-1.3-1-3-1.6-4.3-1.5
						c-0.3,0-0.6,0.1-0.9,0.2c-0.3,0.1-0.5,0.3-0.8,0.5c-0.5,0.4-0.9,1-1.3,1.8c-0.7,1.5-1.1,3.4-1.4,5.4c-0.3,2-0.4,4-0.4,6
						c0,2,0.2,4,0.5,6c0.3,2,0.9,4,1.4,6.2c0.2,1.1,0.4,2.2,0.5,3.4c0.1,1.2,0,2.4-0.2,3.5c-0.2,1.2-0.6,2.3-1.2,3.3
						c-0.3,0.5-0.7,1-1.1,1.4c-0.4,0.4-0.9,0.8-1.4,1.1c-0.3,0.2-0.6,0.1-0.8-0.2c-0.2-0.2-0.1-0.5,0.1-0.7l0,0
						c1.4-1.3,2.1-3.3,2.1-5.2c0.1-1.9-0.4-3.8-1.1-5.8c-0.3-1-0.7-2-1.1-3c-0.4-1-0.7-2.1-1-3.2c-0.6-2.2-1-4.4-1.2-6.7
						c-0.2-2.3-0.2-4.5,0.1-6.8c0.1-1.1,0.3-2.2,0.6-3.4c0.3-1.2,0.7-2.4,1.3-3.5c0.6-1.2,1.4-2.3,2.6-3.3c1.1-0.9,2.7-1.6,4.1-1.7
						c1.5-0.2,2.9,0.1,4.2,0.6c1.3,0.4,2.4,1.1,3.4,1.9c0.5,0.4,1,0.8,1.4,1.3c0.4,0.5,0.8,0.9,1.2,1.4c0.7,1,1.4,2.1,1.9,3.2
						c1,2.2,1.6,4.5,1.8,6.9c0.3,2.3,0.2,4.7,0,6.9c-0.2,2.2-0.6,4.4-0.9,6.5c-0.3,2.1-0.8,4.2-1.2,6.2c-0.4,2-0.7,4-0.7,6
						c-0.1,2,0.1,4,0.6,6c0.3,1,0.6,1.9,1,2.8c0.4,0.9,1,1.8,1.6,2.6l0,0c0.2,0.3,0.1,0.6-0.1,0.8C915.7,59.1,915.4,59.1,915.2,58.9
						z"/>
				</g>
			</g>
			<g class="st0">
				<g>
					<path class="st1" d="M781.2,201.7c3-6.9,9.5-11,16.4-11.4c0.2-1.1,0.4-2.1,0.7-3.2c0.9-2.9,3-5.6,5.9-6.1
						c1-0.2,1.9-0.1,2.8,0.2c0.6,0.6,1.1,1.2,1.6,1.9c-2,0.4-3.4,2.3-3.9,4.3c-0.3,1.3-0.3,2.6-0.2,3.9c0.1,0.7,0.1,1.5,0.2,2.2
						c0.4,2.8,0.7,5.5,1.1,8.3c0.2,1.4,0.3,2.8,0.1,4.1c0,0.2-0.1,0.3-0.1,0.5c-0.4,1.1-1.4,1.7-2.3,2.5c-4.8,4-6.5,11.2-4,16.9
						c2.1,4.8,6.7,8.1,11.1,11c5.9,3.9,12,7.5,18.2,10.9c-14.6-5.9-28.5-13.7-41.3-23.2C780.3,219.3,777.7,209.8,781.2,201.7z"/>
				</g>
			</g>
			<g class="st0">
				<g>
					<path class="st1" d="M813.9,197.9c0.3-0.2,0.6-0.4,0.9-0.6c13.6,8.5,28.5,15,44.3,19.2c5.1-3,10.9-5.6,16.2-3.5
						c3.3,1.3,5.8,4.1,7.8,7c0.1,0.3,0.1,0.7,0.2,1c0.1,0.5,0.2,1,0.2,1.5c-0.6-0.7-1.2-1.2-1.9-1.7c-2.6-1.7-6.2-2-9.5-1.4
						c-1,0.2-2.1,0.5-3,0.9c-4.8,1.9-8.9,5.3-13.5,7.6c-1.9,0.9-4,1.7-6.2,2c-3.1,0.4-6.1,0-8.6-1.8c-3-2.2-4.5-5.9-7.7-7.8
						c-1.7-1-3.7-1.3-5.5-1.9c-6.7-2.4-10.7-9.2-14.2-15.4c-0.4-0.8-0.3-1.7-0.4-2.6C813.3,199.5,813.2,198.4,813.9,197.9z"/>
				</g>
			</g>
			<g class="st0">
				<g>
					<path class="st1" d="M900.7,221.9c13.9,0,27.4-1.8,40.3-5.1c0-0.2,0-0.4-0.1-0.6c-0.4-3.6-1.5-7.3-0.8-10.9
						c0.7-3.6,4-7.1,7.6-6.2c1.6,0.4,2.9,1.6,4.2,2.7c0,0.3,0,0.5-0.1,0.8c-1.8-0.5-3.9,0.7-4.7,2.5c-0.8,1.7-0.7,3.8-0.2,5.6
						c0.4,1.4,0.9,2.7,1.5,4c0.2,0.5,0.4,0.9,0.5,1.4c0.7,2,1,4.2,0.8,6.3c-0.2,2-0.7,3.9-1.9,5.6c-2.3,3.4-6.6,5.1-10.7,5.4
						c-4.1,0.4-8.2-0.3-12.3-0.7c-4.1-0.4-8.4-0.3-12.1,1.4c-2.8,1.3-5.2,3.5-8.2,4.2c-3.7,0.9-7.6-0.7-10.5-3.2
						c-2.9-2.5-4.8-5.8-6.8-9.1c-0.9-1.5-1.3-3.2-1.4-5C890.7,221.6,895.6,221.9,900.7,221.9z"/>
				</g>
			</g>
			<g class="st0">
				<g>
					<path class="st1" d="M972.3,205.4c4.7-3,9.1-6.6,13.9-9.5c4.8-2.9,10.2-5.2,15.8-5.4c5.6-0.2,11.3,2,14.5,6.6
						c-3.7-2-8.2-2.4-12.3-1.1c-4,1.3-7.5,4.2-9.3,8c-0.9,1.8-1.5,3.8-2.8,5.3c-1.8,2.1-4.6,2.9-7.4,2.9c-2.7,0-5.4-0.9-8-1.7
						C974.9,210,973.2,207.2,972.3,205.4z"/>
				</g>
			</g>
			<g class="st0">
				<g>
					<path class="st1" d="M825.3,150.9c-1.5-5.6-3.3-11.3-2.7-17.1c0.2-2.1,0.8-4.2,2-5.9c1.3-1.7,3.4-2.8,5.4-2.6
						c1.4,0.2,2.5,0.9,3.5,1.9c0.9,1.6,1.5,3.5,1.7,5.4c0.1,0.7,0.1,1.4,0.1,2.1c-0.5,0.1-1,0.3-1.5,0.5c-2.3,1.1-3.9,3.5-4.4,6
						c-0.2,0.8-0.2,1.7-0.2,2.5c0.1,2.3,0.7,4.5,1.5,6.6c1,2.5,2.2,4.9,3.2,7.4c0.2,0.4,0.3,0.8,0.4,1.2c0.9,3,2.2,7.1,0.5,9.7
						c-3.6,5.6-5.3,12.6-3.7,19.1c1.7,6.5,7.1,12.1,13.7,13c5.6,0.8,11.1-1.6,16.6-2.5c6.3-1,13-0.1,18.8,2.7
						c4.9,2.3,9.2,5.9,14.4,7.8c5.1,1.9,10.7,1.9,16.1,2c4,0,8.2,0,11.9-1.6c3.9-1.7,6.9-5.1,10.4-7.6c3.2-2.3,7.6-3.7,11.1-2.1
						c-2,1.1-3.6,3.4-4,5.7c-0.7,3.6,0.4,7.3,0.8,10.9c0,0,0,0.1,0,0.1c-19.1,5.2-38.1,6.7-57.1,4.5h0c-0.1-0.2-0.3-0.4-0.5-0.7
						c-0.1-0.1-0.1-0.2-0.2-0.2c-2-2.9-4.5-5.7-7.8-7c-5.1-2-10.6,0.3-15.5,3.1c-15.4-4.3-30.8-11.2-46.2-20.4
						c-0.1-2.7-0.1-5.4-0.9-8c-0.7-2.3-2.3-4.5-4.3-5.7L825.3,150.9z"/>
				</g>
			</g>
			<g class="st0">
				<g>
					<path class="st1" d="M851.1,88.3c-0.7-4.5,0.2-9.7,3.9-12.4c1-0.7,2.1-1.2,3.1-2c2-1.7,2.5-4.6,2.5-7.2c0-2.6-0.5-5.2,0-7.8
						c0.4-2.6,2.1-5.2,4.7-5.7c0.1,0,0.1,0,0.2,0c3.1,1.3,4.9,5.1,5.4,8.6c0.2,1.5,0.2,3.1,0.1,4.7c-0.3,3.2-1.2,6.3-2.8,9.1
						c-1.7,2.9-4.1,5.5-5,8.7c-1.1,4.1-0.2,8.4,1,12.8c0.8,2.8,1.8,5.7,2.4,8.5c3.2-2.8,7.4-4.5,12-4.5c6.9,0,12.8,3.8,15.9,9.4
						c-1.9-0.7-3.9-1-6-1c-10.1,0-18.3,8.2-18.3,18.3c0,3.2,0.8,6.3,2.3,8.9c-5.7-2-10.1-6.7-11.7-12.6c-1.9,2.9-3.5,5.8-3.9,9.1
						c-0.3,3.1,0.6,6.2,0.9,9.3c0.3,3.1,0,6.6-2.3,8.7c-1.9,1.8-4.7,2.2-7.2,1.9c-4.4-0.5-8.5-3.2-10.8-7.1
						c0.4-4.8-0.5-9.7-1.8-14.6L854,97.9C852.9,94.7,851.7,91.6,851.1,88.3z"/>
				</g>
			</g>
			<g class="st0">
				<g>
					<path class="st1" d="M874.6,59.8L891,29.6c1.1-2,2.6-3.5,4.3-4.5c-0.2-3,0-6.1,0.5-9.1c0.5-2.9,1.7-6.1,4.4-7.3
						c2.6-1.2,5.9-0.1,8.1,1.8c0.9,0.8,1.7,1.7,2.4,2.7c-2.2,0.1-4.3,0.9-5.8,2.5c-2,2.1-2.5,5-2.4,7.9c0,0.8,0.1,1.6,0.2,2.4
						c0.7,5.4,2.3,10.8,2.2,16.3c-0.1,3.4-1,6.9-2.8,9.6c-1.2,1.8-2.7,3.2-4.7,4c-2.5,1.1-5.9,1.6-6.7,4.2c-0.6,1.7,0.3,3.6,0.1,5.4
						c-0.4,2.7-3.5,4.3-6.2,4.1c-2.7-0.2-5.1-1.8-7.4-3.3C876,64.1,875.3,62,874.6,59.8z"/>
				</g>
			</g>
			<g class="st0">
				<g>
					<path class="st1" d="M990.2,194.1c-2.1,0.7-4.5-0.1-6.4-1.3c-1.9-1.2-3.6-2.7-5.6-3.6c-5.2-2.4-11.3-0.7-16.4,1.8
						s-9.9,5.9-15.5,7c0.9,0.8,2.1,1.3,3,2.1c1.2,1.1,2.4,2.2,3.8,2.8c2.7,1.1,5.8,0.2,8.8,0.1c3.1-0.1,6.3,0.9,8.9,2.7
						C978.2,204.3,985,199.7,990.2,194.1z"/>
				</g>
			</g>
			<g>
				<g>
					<circle class="st7" cx="936.7" cy="167.3" r="18.3"/>
				</g>
			</g>
			<g class="st0">
				<g>
					<path class="st1" d="M908.5,159c0-10.1,8.2-18.3,18.3-18.3c6.9,0,12.8,3.8,15.9,9.4c-1.9-0.7-3.9-1-6-1
						c-10.1,0-18.3,8.2-18.3,18.3c0,3.2,0.8,6.3,2.3,8.9C913.7,173.8,908.5,167,908.5,159z"/>
				</g>
			</g>
			<g class="st3">
				<g>
					<path class="st4" d="M949.4,164.6c0-6.1-3-11.5-7.6-14.8c7.6,2.2,13.2,9.2,13.2,17.5c0,10.1-8.2,18.3-18.3,18.3
						c-4,0-7.7-1.3-10.7-3.5c1.6,0.5,3.3,0.7,5.1,0.7C941.2,182.9,949.4,174.7,949.4,164.6z"/>
				</g>
			</g>
			<g>
				<g>
					<path class="st1" d="M936.7,146.8c11.3,0,20.6,9.2,20.6,20.6c0,11.3-9.2,20.6-20.6,20.6s-20.6-9.2-20.6-20.6
						C916.2,156,925.4,146.8,936.7,146.8z M936.7,183.3c8.8,0,15.9-7.2,15.9-15.9c0-8.8-7.2-15.9-15.9-15.9s-15.9,7.2-15.9,15.9
						C920.8,176.1,927.9,183.3,936.7,183.3z"/>
				</g>
			</g>
			<g class="st0">
				<g>
					<circle class="st1" cx="937.9" cy="162.5" r="2.7"/>
				</g>
			</g>
			<g class="st0">
				<g>
					<circle class="st1" cx="930.5" cy="170.3" r="4"/>
				</g>
			</g>
			<g>
				<g>
					<circle class="st7" cx="888.6" cy="127.6" r="18.3"/>
				</g>
			</g>
			<g class="st3">
				<g>
					<path class="st4" d="M901.3,124.9c0-6.1-3-11.5-7.6-14.8c7.6,2.2,13.2,9.2,13.2,17.5c0,10.1-8.2,18.3-18.3,18.3
						c-4,0-7.7-1.3-10.7-3.5c1.6,0.5,3.3,0.7,5.1,0.7C893.1,143.2,901.3,135,901.3,124.9z"/>
				</g>
			</g>
			<g>
				<g>
					<path class="st1" d="M888.6,107.1c11.3,0,20.6,9.2,20.6,20.6c0,11.3-9.2,20.6-20.6,20.6s-20.6-9.2-20.6-20.6
						C868.1,116.3,877.3,107.1,888.6,107.1z M888.6,143.6c8.8,0,15.9-7.2,15.9-15.9c0-8.8-7.2-15.9-15.9-15.9
						c-8.8,0-15.9,7.2-15.9,15.9C872.7,136.4,879.8,143.6,888.6,143.6z"/>
				</g>
			</g>
			<g class="st0">
				<g>
					<circle class="st1" cx="889.7" cy="122.8" r="2.7"/>
				</g>
			</g>
			<g class="st0">
				<g>
					<circle class="st1" cx="882.4" cy="130.6" r="4"/>
				</g>
			</g>
			<g>
				<g>
					<path class="st6" d="M934.8,194.8c-1.5-0.3-2.6-1.8-2.9-3.3c-0.4-1.5-0.2-3.1-0.3-4.6c-0.1-3.5-1.2-7.1-3.7-9.6
						c-2.5-2.5-6.5-3.6-9.7-2.2c-2.5,1.1-4.2,3.4-5.9,5.5s-3.8,4.2-6.5,4.6"/>
				</g>
			</g>
			<g>
				<g>
					<path class="st6" d="M934.8,194.8c-0.2,0-0.4-0.1-0.6-0.2L934.8,194.8z"/>
				</g>
			</g>
			<g class="st3">
				<g>
					<path class="st4" d="M914,178.3c1.2-1.4,2.5-2.7,4.2-3.4c3.2-1.4,7.2-0.3,9.7,2.2c2.5,2.5,3.6,6.1,3.7,9.6
						c0,1.5-0.1,3.1,0.3,4.6c0.3,1.3,1.1,2.5,2.3,3.1l-5-1.6c-1.1-0.4-1.9-1.4-1.9-2.6c0,0,0,0,0,0c-0.1-3.5-1.2-7.1-3.7-9.6
						C921.1,178.2,917.2,177,914,178.3z"/>
				</g>
			</g>
			<g>
				<g>
					<path class="st1" d="M934.7,195.3c-0.6,0-1.2-0.1-1.8-0.4c-0.6-0.3-1-0.7-1.5-1.2c-0.4-0.5-0.7-1-1-1.6
						c-0.2-0.6-0.4-1.1-0.5-1.7c-0.2-1.1-0.3-2.2-0.4-3.1c-0.1-0.9-0.2-1.7-0.4-2.5c-0.4-1.6-1-3.2-1.9-4.4
						c-0.9-1.3-1.9-2.2-3.3-2.9c-1.3-0.6-2.8-0.9-4.1-0.7c-1.3,0.2-2.6,1-3.9,2.3c-0.7,0.6-1.3,1.3-2,2c-0.7,0.7-1.4,1.5-2.3,2.1
						c-0.8,0.7-1.7,1.3-2.7,1.7c-1,0.5-2.1,0.7-3.2,0.7c-0.3,0-0.6-0.3-0.6-0.6c0-0.2,0.2-0.4,0.4-0.5l0,0c1.7-0.6,2.9-1.9,4-3.3
						c0.5-0.7,1.1-1.5,1.6-2.3c0.5-0.8,1.1-1.7,1.8-2.5c0.7-0.8,1.4-1.7,2.4-2.4c0.9-0.7,2.1-1.4,3.3-1.7c2.5-0.7,5.1-0.4,7.3,0.6
						c1.1,0.5,2.2,1.1,3.1,2c0.9,0.8,1.7,1.8,2.3,2.8c1.3,2,1.9,4.3,2.2,6.5c0.1,1.1,0.1,2.2,0.1,3.3c-0.1,1-0.2,1.9-0.3,2.8
						c-0.1,0.8,0,1.5,0.2,2.3c0.2,0.7,0.6,1.4,1.3,1.8l0.1,0c0.3,0.2,0.3,0.6,0.2,0.8C935,195.2,934.8,195.3,934.7,195.3z"/>
				</g>
			</g>
			<g>
				<g>
					<path class="st6" d="M893.4,154.7c-1.5,0.1-3-1-3.8-2.3c-0.8-1.3-1.1-2.9-1.6-4.4c-1.1-3.3-3.3-6.5-6.4-8.1
						c-3.1-1.7-7.3-1.6-9.9,0.7c-2.1,1.8-3,4.5-4.1,7c-1,2.5-2.4,5.2-4.9,6.3"/>
				</g>
			</g>
			<g>
				<g>
					<path class="st6" d="M911.1,133.2l0.7,0C911.5,133.3,911.3,133.3,911.1,133.2z"/>
				</g>
			</g>
			<g class="st3">
				<g>
					<path class="st4" d="M870.9,141.4c0.2-0.2,0.5-0.5,0.7-0.7c2.7-2.3,6.8-2.4,9.9-0.7c3.1,1.7,5.3,4.8,6.4,8.1
						c0.5,1.5,0.8,3,1.6,4.4c0.7,1.1,1.8,2.1,3.1,2.3l-4-0.1c-2.5-0.1-4.6-1.7-5.4-4c0,0,0,0,0,0c-1.1-3.3-3.3-6.5-6.4-8.1
						C875.1,141.5,872.9,141.1,870.9,141.4z"/>
				</g>
			</g>
			<g>
				<g>
					<path class="st1" d="M893.4,155.3c-0.6,0.2-1.2,0.2-1.8,0.1c-0.6-0.1-1.2-0.4-1.7-0.7c-0.5-0.3-1-0.7-1.4-1.2
						c-0.4-0.5-0.7-1-1-1.5c-0.6-1-0.9-2-1.3-2.8c-0.3-0.8-0.7-1.6-1.1-2.3c-0.8-1.5-1.9-2.7-3.1-3.7c-1.2-1-2.5-1.6-3.9-1.8
						c-1.4-0.2-2.9-0.1-4.1,0.5c-1.2,0.6-2.2,1.8-3.1,3.3c-0.4,0.8-0.9,1.6-1.3,2.5c-0.5,0.9-0.9,1.8-1.5,2.7
						c-0.6,0.9-1.3,1.7-2.1,2.5c-0.8,0.7-1.8,1.3-2.9,1.6c-0.3,0.1-0.6-0.1-0.7-0.4c-0.1-0.2,0-0.5,0.2-0.6l0,0
						c1.4-1.1,2.2-2.7,2.9-4.4c0.3-0.9,0.6-1.7,0.8-2.7c0.3-0.9,0.6-1.9,1-2.9c0.4-1,0.9-2,1.6-3c0.7-1,1.6-1.9,2.7-2.6
						c2.2-1.4,4.8-1.9,7.2-1.6c1.2,0.1,2.4,0.5,3.6,1c1.1,0.5,2.1,1.2,3,2c1.8,1.6,3.1,3.5,4,5.5c0.5,1,0.8,2.1,1,3.1
						c0.2,1,0.4,1.9,0.5,2.7c0.2,0.8,0.4,1.5,0.8,2.1c0.4,0.6,1,1.1,1.8,1.4l0.1,0c0.3,0.1,0.5,0.4,0.4,0.7
						C893.7,155.1,893.6,155.3,893.4,155.3z"/>
				</g>
			</g>
			<g>
				<g class="st0">
					<g>
						<path class="st1" d="M874.7,189.3c4-5.2,0.1-8.3-5.4-11.3c-2.1-1.2-2.6-3.9-1-5.7c1.6-1.8,3.6-3.9,5.5-5.6
							c4.1-3.7-2.6-7-2.6-7l-1-0.6c0,0-6-4.5-7.5,0.9c-0.7,2.5-1.6,5.3-2.5,7.5c-0.9,2.2-3.6,3.1-5.6,1.7c-5.7-3.9-11-6.8-13.5-0.3
							c-2,5.3,0.6,15.8,9.9,21.4S870.6,194.6,874.7,189.3z"/>
					</g>
				</g>
				<g>
					<g>
						<path class="st8" d="M881,196.4c4-5.2,0.1-8.3-5.4-11.3c-2.1-1.2-2.6-3.9-1-5.7c1.6-1.8,3.6-3.9,5.5-5.6c4.1-3.7-2.6-7-2.6-7
							l-1-0.6c0,0-6-4.5-7.5,0.9c-0.7,2.5-1.6,5.3-2.5,7.5c-0.9,2.2-3.6,3.1-5.6,1.7c-5.7-3.9-11-6.8-13.5-0.3
							c-2,5.3,0.6,15.8,9.9,21.4C866.7,203,876.9,201.8,881,196.4z"/>
					</g>
				</g>
				<g class="st0">
					<g>
						<path class="st1" d="M882.1,172.8c1.3-3.1-3.7-5.6-3.7-5.6l-1-0.6c0,0-6-4.5-7.4,0.9c-0.7,2.5-1.6,5.3-2.5,7.5
							c-0.9,2.2-3.6,3.1-5.6,1.7c-5.7-3.9-11-6.8-13.5-0.3c-1.3,3.3-0.7,8.7,2.2,13.7c-1.1-3.5-1.1-6.9-0.2-9.2
							c2.5-6.5,7.8-3.6,13.5,0.3c2,1.4,4.7,0.5,5.5-1.7c0.9-2.2,1.8-5,2.5-7.5c1.4-5.3,7.5-0.9,7.5-0.9l1,0.6
							C880.4,171.8,881.3,172.2,882.1,172.8z"/>
					</g>
				</g>
				<g class="st3">
					<g>
						<path class="st9" d="M880.8,188.6c-0.2,1-0.7,2-1.6,3.2c-4.1,5.4-14.3,6.6-23.6,0.9c-3.8-2.3-6.4-5.4-8.1-8.6
							c1.2,4.7,4.4,9.9,9.9,13.3c9.2,5.7,19.5,4.5,23.6-0.9C883.5,193.1,882.9,190.7,880.8,188.6z"/>
					</g>
				</g>
				<g>
					<g>
						<path class="st1" d="M872.1,162.3c2.5,0,4.9,1.6,5.6,2.1l0.9,0.5c0.9,0.5,4.5,2.5,4.9,5.7c0.2,1.2-0.1,2.9-2,4.6
							c-1.5,1.4-3.4,3.2-5.3,5.4c-0.3,0.4-0.5,0.9-0.4,1.4c0.1,0.3,0.2,0.9,0.8,1.2c3.4,1.9,7.2,4.2,7.9,7.8
							c0.4,2.1-0.2,4.3-1.9,6.5v0c-5.1,6.7-16.6,7.3-26.2,1.4c-10.5-6.4-13-18-10.7-23.9c1-2.6,2.5-4.2,4.5-4.9
							c3.7-1.1,8,1.5,12,4.3c0.4,0.3,1,0.4,1.5,0.2c0.5-0.2,0.9-0.5,1.1-1c1.1-2.8,1.9-5.3,2.4-7.3c0.7-2.5,2.1-3.5,3.2-3.9
							C870.9,162.4,871.5,162.3,872.1,162.3z M879.4,195.1c1.4-1.9,1.2-2.9,1.2-3.2c-0.4-1.8-3.2-3.6-5.9-5.1
							c-1.5-0.8-2.6-2.3-2.9-4.1c-0.3-1.7,0.2-3.5,1.4-4.8c2.1-2.3,4-4.2,5.6-5.7c0.3-0.3,0.7-0.7,0.7-1.1c-0.1-0.8-1.7-2.1-2.8-2.7
							c-0.1,0-0.1-0.1-0.2-0.1l-1-0.6c0,0-0.1-0.1-0.1-0.1c-1-0.7-2.8-1.6-3.7-1.3c-0.3,0.1-0.5,0.6-0.7,1.1
							c-0.6,2.2-1.4,4.8-2.6,7.7c-0.6,1.6-2,2.9-3.6,3.4c-1.7,0.5-3.5,0.2-4.9-0.8c-2.1-1.4-6.3-4.4-8.5-3.7c-0.8,0.2-1.4,1.1-2,2.4
							c-1.7,4.6,0.9,14,9,19C867.2,200.9,876.1,199.5,879.4,195.1L879.4,195.1z"/>
					</g>
				</g>
			</g>
			<g>
				<g class="st0">
					<g>
						<path class="st1" d="M919,95.8c5.3-3.8,2.5-7.9-1.8-12.4c-1.7-1.7-1.3-4.5,0.8-5.7c2-1.2,4.5-2.6,6.9-3.7
							c5-2.3-0.4-7.5-0.4-7.5l-0.8-0.9c0,0-4.5-6-7.4-1.3c-1.4,2.2-3.1,4.6-4.6,6.4c-1.5,1.9-4.3,1.9-5.8,0
							c-4.3-5.4-8.5-9.8-12.8-4.3c-3.5,4.4-4,15.3,3.1,23.4S913.5,99.7,919,95.8z"/>
					</g>
				</g>
				<g>
					<g>
						<path class="st8" d="M922.8,100.3c5.3-3.8,2.5-7.9-1.8-12.4c-1.7-1.7-1.3-4.5,0.8-5.7c2-1.2,4.5-2.6,6.9-3.7
							c5-2.3-0.4-7.5-0.4-7.5l-0.8-0.9c0,0-4.5-6-7.4-1.3c-1.4,2.2-3.1,4.6-4.6,6.4c-1.5,1.9-4.3,1.9-5.8,0
							c-4.3-5.4-8.5-9.8-12.8-4.3c-3.5,4.4-4,15.3,3.1,23.4C907.1,102.4,917.3,104.2,922.8,100.3z"/>
					</g>
				</g>
				<g class="st0">
					<g>
						<path class="st1" d="M930.7,78.1c2.2-2.5-1.9-6.4-1.9-6.4l-0.8-0.9c0,0-4.5-6-7.4-1.3c-1.4,2.2-3.1,4.6-4.6,6.4
							c-1.5,1.9-4.3,1.9-5.8,0c-4.3-5.4-8.5-9.8-12.8-4.3c-2.2,2.8-3.2,8.2-1.9,13.8c0-3.7,0.9-6.9,2.5-8.9
							c4.3-5.5,8.5-1.1,12.8,4.3c1.5,1.9,4.3,1.9,5.8,0c1.5-1.9,3.2-4.2,4.6-6.4c2.9-4.7,7.4,1.3,7.4,1.3l0.8,0.9
							C929.4,76.6,930.1,77.2,930.7,78.1z"/>
					</g>
				</g>
				<g class="st3">
					<g>
						<path class="st9" d="M924.8,92.8c-0.5,0.9-1.2,1.7-2.4,2.6c-5.5,4-15.6,2.1-22.8-6c-2.9-3.3-4.6-7-5.2-10.6
							c-0.2,4.9,1.3,10.7,5.6,15.6c7.2,8.1,17.3,10,22.8,6C926.1,97.9,926.3,95.4,924.8,92.8z"/>
					</g>
				</g>
				<g>
					<g>
						<path class="st1" d="M922.7,64.9c3.1,0,5.7,3.1,6.3,3.9l0.7,0.8c0.7,0.7,3.6,3.7,3,6.9c-0.2,1.2-0.9,2.8-3.2,3.8
							c-1.9,0.9-4.2,2.1-6.7,3.6c-0.4,0.3-0.7,0.7-0.8,1.2c0,0.3,0,0.9,0.5,1.4c2.7,2.8,5.6,6.1,5.3,9.8c-0.2,2.1-1.4,4-3.7,5.6l0,0
							c-6.8,4.9-18,2.1-25.5-6.3c-8.1-9.2-7.1-21-3.2-26c1.7-2.2,3.7-3.3,5.8-3.3c0,0,0,0,0,0c3.9,0,7.2,3.7,10.2,7.6
							c0.3,0.4,0.8,0.6,1.3,0.6c0,0,0,0,0,0c0.5,0,1-0.2,1.3-0.6c1.8-2.3,3.4-4.5,4.5-6.2c1.3-2.2,3-2.7,4.2-2.7
							C922.6,64.9,922.6,64.9,922.7,64.9z M915.9,100.3c2.2,0,4.2-0.6,5.7-1.6l0,0c1.9-1.4,2-2.4,2.1-2.7c0.2-1.8-2-4.4-4.2-6.6
							c-1.2-1.3-1.8-3-1.6-4.7c0.2-1.7,1.2-3.3,2.7-4.2c2.7-1.6,5-2.9,7.1-3.8c0.4-0.2,0.9-0.5,0.9-0.8c0.1-0.8-1-2.5-1.9-3.4
							c0,0-0.1-0.1-0.1-0.1l-0.8-0.9c0,0-0.1-0.1-0.1-0.1c-0.7-1-2.3-2.3-3.1-2.3c-0.4,0-0.7,0.5-0.9,0.8c-1.2,1.9-2.8,4.1-4.7,6.6
							c-1.1,1.4-2.7,2.2-4.5,2.2c0,0,0,0,0,0c-1.8,0-3.4-0.8-4.5-2.2c-1.5-2-4.8-6-7-6c0,0,0,0,0,0c-0.8,0-1.7,0.6-2.6,1.8
							c-3,3.8-3.3,13.6,3.1,20.8C906,98,911.4,100.3,915.9,100.3z M922.8,100.3L922.8,100.3L922.8,100.3z"/>
					</g>
				</g>
			</g>
			<g class="st0">
				<g>
					<ellipse class="st1" cx="931.4" cy="114.4" rx="2.1" ry="3.1"/>
				</g>
			</g>
			<g class="st0">
				<g>
					<ellipse class="st1" cx="872.5" cy="87.7" rx="2.1" ry="3.1"/>
				</g>
			</g>
			<g class="st0">
				<g>
					<ellipse class="st1" cx="895.6" cy="174.9" rx="2.1" ry="3.1"/>
				</g>
			</g>
			<g class="st0">
				<g>
					<ellipse class="st1" cx="967.6" cy="177.5" rx="2.1" ry="3.1"/>
				</g>
			</g>
			<g class="st0">
				<g>
					<ellipse class="st1" cx="922.8" cy="119.9" rx="1.1" ry="1.7"/>
				</g>
			</g>
			<g class="st0">
				<g>
					<ellipse class="st1" cx="965.5" cy="167.3" rx="1.1" ry="1.7"/>
				</g>
			</g>
			<g class="st0">
				<g>
					<ellipse class="st1" cx="900.7" cy="188.7" rx="1.1" ry="1.7"/>
				</g>
			</g>
			<g class="st0">
				<g>
					<ellipse class="st1" cx="878.4" cy="92.9" rx="1.1" ry="1.7"/>
				</g>
			</g>
			<g class="st0">
				<g>
					<ellipse class="st1" cx="929.6" cy="126" rx="1.9" ry="2.8"/>
				</g>
			</g>
			<g>
				<g>
					<g>
						<path class="st10" d="M947.9,141.7c-3.8-5.3-9.2-8.7-16.2-9.9l4.2-6.9c6.8,1.1,12.2,4.4,16.2,9.9L947.9,141.7z"/>
					</g>
				</g>
				<g class="st3">
					<g>
						<path class="st9" d="M952.1,134.7l-4.2,6.9c-0.7-0.9-1.4-1.8-2.2-2.6l2.6-4.3c-3.4-4.6-7.7-7.6-12.9-9.1l0.5-0.7
							C942.7,125.9,948.1,129.2,952.1,134.7z"/>
					</g>
				</g>
				<g>
					<g>
						<path class="st1" d="M935.9,123.1c0.1,0,0.2,0,0.3,0c7.2,1.2,13,4.7,17.3,10.6c0.4,0.6,0.4,1.3,0.1,1.9l-4.2,6.9
							c-0.3,0.5-0.8,0.8-1.4,0.8c-0.6,0-1.1-0.2-1.5-0.7c-3.7-5.1-8.6-8.1-15.1-9.2c-0.6-0.1-1-0.5-1.3-1s-0.2-1.1,0.1-1.6l4.2-6.9
							C934.8,123.4,935.3,123.1,935.9,123.1z M950.1,134.8c-3.5-4.3-7.8-7-13.3-8.1l-2.3,3.8c5.3,1.4,9.8,4.1,13.3,8.1L950.1,134.8z
							"/>
					</g>
				</g>
			</g>
			<g>
				<g>
					<g>
						<path class="st10" d="M913.9,211.3c-6.3-1.8-12.6-1.2-18.9,2.3l-1-8.1c6-3.3,12.3-4.1,18.9-2.3L913.9,211.3z"/>
					</g>
				</g>
				<g class="st3">
					<g>
						<path class="st9" d="M912.9,203.2l1,8.1c-1.1-0.3-2.2-0.6-3.4-0.7l-0.6-5c-5.5-1.5-10.7-1.3-15.8,0.8l-0.1-0.9
							C900,202.1,906.3,201.4,912.9,203.2z"/>
					</g>
				</g>
				<g>
					<g>
						<path class="st1" d="M906,200.5c2.4,0,4.9,0.3,7.3,1c0.7,0.2,1.2,0.8,1.3,1.5l1,8.1c0.1,0.6-0.2,1.1-0.6,1.5s-1,0.5-1.6,0.3
							c-6-1.7-11.8-1-17.6,2.1c-0.5,0.3-1.1,0.3-1.6,0c-0.5-0.3-0.9-0.8-0.9-1.3l-1-8.1c-0.1-0.7,0.3-1.4,0.9-1.7
							C897.3,201.6,901.6,200.5,906,200.5z M911.3,204.6c-5.4-1.3-10.5-0.6-15.4,1.8l0.5,4.5c5-2.2,10.2-2.9,15.4-1.9L911.3,204.6z"
							/>
					</g>
				</g>
			</g>
			<g>
				<g>
					<g>
						<path class="st10" d="M880.7,103.8c-6.5,0.3-12.3,2.9-17.2,8.1l-3.5-7.4c4.6-5,10.4-7.7,17.2-8.1L880.7,103.8z"/>
					</g>
				</g>
				<g class="st3">
					<g>
						<path class="st9" d="M877.3,96.4l3.5,7.4c-1.2,0.1-2.3,0.2-3.4,0.4l-2.1-4.6c-5.7,0.3-10.6,2.2-14.7,5.7l-0.4-0.8
							C864.7,99.5,870.4,96.8,877.3,96.4z"/>
					</g>
				</g>
				<g>
					<g>
						<path class="st1" d="M877.3,94.7c0.7,0,1.3,0.4,1.6,1l3.5,7.4c0.2,0.5,0.2,1.1-0.1,1.6c-0.3,0.5-0.8,0.8-1.4,0.8
							c-6.3,0.3-11.5,2.8-16,7.6c-0.4,0.4-1,0.6-1.5,0.5c-0.6-0.1-1.1-0.5-1.3-1l-3.5-7.4c-0.3-0.6-0.2-1.4,0.3-1.9
							C863.7,98,869.9,95.1,877.3,94.7C877.2,94.7,877.2,94.7,877.3,94.7z M878.1,102.3l-1.9-4c-5.5,0.5-10.1,2.7-14.1,6.6l1.9,4.1
							C868.1,105.3,872.8,103,878.1,102.3z"/>
					</g>
				</g>
			</g>
			<g class="st11">
				<g>
					<path class="st4" d="M874.7,238.1c-3.8-2.1-8.4-2.2-12.7-1.7c-2.2,0.2-4.7,0.9-5.6,2.8c-0.9,1.8,0,4,1.5,5.4
						c1.5,1.3,3.5,1.9,5.4,2.4c2.8,0.7,5.7,1.2,8.6,1.6c1.5,0.2,3,0.3,4.5,0.4c0.9,0,3.3,0.5,4,0c1.4-1,0-4.7-0.7-5.9
						C878.5,241,876.8,239.2,874.7,238.1z"/>
				</g>
			</g>
			<g class="st11">
				<g>
					<path class="st4" d="M851.3,242.4c0.4-1.3-0.5-2.6-1.4-3.5c-1.4-1.4-3.2-2.4-5.1-3c-0.8-0.3-1.8-0.4-2.6,0
						c-0.7,0.4-1.1,1.2-1.3,1.9c-0.6,2.7,1.4,5.2,3.9,6.1C846.7,244.6,850.5,244.7,851.3,242.4z"/>
				</g>
			</g>
		</g>
	</g>
	<g>
		<path class="st4" d="M159.4,120.5c-5.9,10.6-14.9,19.1-27,25.6c-12.2,6.5-27.2,9.7-45.3,9.7H53.9v79.2H0.1V14.5h87
			c17.6,0,32.5,3,44.6,9.1c12.1,6.1,21.3,14.5,27.3,25.1c6.1,10.7,9.1,22.9,9.1,36.8C168.2,98.3,165.3,110,159.4,120.5z M106,105.9
			c5-4.8,7.5-11.6,7.5-20.4c0-8.8-2.5-15.6-7.5-20.4c-5-4.8-12.7-7.2-22.9-7.2H53.9v55.3h29.2C93.3,113.2,101,110.8,106,105.9z"/>
		<path class="st4" d="M281.4,14.5v220.6h-53.7V14.5H281.4z"/>
		<path class="st4" d="M408.9,191.1h94.9v44H348v-40.9l94.3-135.8H348v-44h155.9v40.9L408.9,191.1z"/>
		<path class="st4" d="M627.7,191.1h94.9v44H566.7v-40.9L661,58.5h-94.3v-44h155.9v40.9L627.7,191.1z"/>
	</g>
</g>
</svg>
